# xmcd CD database file
#
# Track frame offsets:
#	150
#	12520
#	36470
#	67932
#	86615
#	110981
#	127374
#	143845
#	159539
#	177507
#	198267
#	228697
#	243330
#	266339
#	287472
#	305217
#	322168
#
# Disc length: 4659 seconds
#
# Revision: 1
# Processed by: cddbd v1.5.2PL0 Copyright (c) Steve Scherf et al.
# Submitted via: CDex 1.70beta2
#
DISCID=08123111
DTITLE=Cuba Caliente - CD2
DYEAR=2007
DGENRE=Salsa
TTITLE0=Me voy a pinar del rio
TTITLE1=Eso que anda
TTITLE2=Ditinto diferente
TTITLE3=Soy yo
TTITLE4=El campesino prodigio
TTITLE5=Disco azucar
TTITLE6=Salsacumbeando
TTITLE7=Oye ramon
TTITLE8=Macoris
TTITLE9=Porque te amaba tanto
TTITLE10=Los herederos
TTITLE11=Babarabatiri
TTITLE12=Dudunbanza
TTITLE13=Just another guajira
TTITLE14=Y que tu quieres que haga
TTITLE15=La sesion
TTITLE16=Un monton de estrellas
EXTD=YEAR: 2007
EXTT0=
EXTT1=
EXTT2=
EXTT3=
EXTT4=
EXTT5=
EXTT6=
EXTT7=
EXTT8=
EXTT9=
EXTT10=
EXTT11=
EXTT12=
EXTT13=
EXTT14=
EXTT15=
EXTT16=
PLAYORDER=
